<svg xmlns="http://www.w3.org/2000/svg" viewBox="0 0 1920 1080">
  <rect width="1920" height="1080" fill="#F0FAF5"/>
  <g filter="url(#filter0_f_splat)">
    <path d="M860 100C1260 50 1520 240 1720 340C1920 440 1960 740 1860 940C1760 1140 1460 1240 1260 1240C1060 1240 760 1340 560 1240C360 1140 60 940 160 740C260 540 460 340 660 240C860 140 660 130 860 100Z" fill="#B8F0D4" fill-opacity="0.6"/>
  </g>
  <g filter="url(#filter1_f_splat)">
    <path d="M960 200C1310 150 1445 320 1610 400C1775 480 1810 680 1710 840C1610 1000 1345 1100 1180 1100C1015 1100 715 1200 550 1100C385 1000 225 800 325 640C425 480 590 400 755 320C920 240 810 230 960 200Z" fill="#6EDEB0" fill-opacity="0.4"/>
  </g>
  <g filter="url(#filter2_f_splat)">
    <path d="M1060 300C1360 250 1470 400 1600 460C1730 520 1760 680 1660 800C1560 920 1330 980 1200 980C1070 980 820 1060 690 980C560 900 390 740 490 620C590 500 720 460 850 400C980 340 910 330 1060 300Z" fill="#43C38D" fill-opacity="0.3"/>
  </g>
  <g filter="url(#filter3_f_splat)">
    <path d="M1160 400C1410 350 1495 480 1590 520C1685 560 1710 680 1610 760C1510 840 1315 880 1220 880C1125 880 925 940 830 880C735 820 605 700 705 620C805 540 905 520 1000 480C1095 440 1060 430 1160 400Z" fill="#2CAB71" fill-opacity="0.2"/>
  </g>
  <g filter="url(#filter4_f_splat)">
    <path d="M700 300C900 200 1100 150 1300 250C1500 350 1600 550 1500 750C1400 950 1200 1000 1000 950C800 900 600 1000 400 900C200 800 100 600 200 400C300 200 500 400 700 300Z" fill="#7B68EE" fill-opacity="0.2"/>
  </g>
  <defs>
    <filter id="filter0_f_splat" x="-40" y="-100" width="2100" height="1540" filterUnits="userSpaceOnUse" color-interpolation-filters="sRGB">
      <feFlood flood-opacity="0" result="BackgroundImageFix"/>
      <feBlend mode="normal" in="SourceGraphic" in2="BackgroundImageFix" result="shape"/>
      <feGaussianBlur stdDeviation="100" result="effect1_foregroundBlur_splat"/>
    </filter>
    <filter id="filter1_f_splat" x="125" y="0" width="1785" height="1300" filterUnits="userSpaceOnUse" color-interpolation-filters="sRGB">
      <feFlood flood-opacity="0" result="BackgroundImageFix"/>
      <feBlend mode="normal" in="SourceGraphic" in2="BackgroundImageFix" result="shape"/>
      <feGaussianBlur stdDeviation="100" result="effect1_foregroundBlur_splat"/>
    </filter>
    <filter id="filter2_f_splat" x="290" y="100" width="1570" height="1080" filterUnits="userSpaceOnUse" color-interpolation-filters="sRGB">
      <feFlood flood-opacity="0" result="BackgroundImageFix"/>
      <feBlend mode="normal" in="SourceGraphic" in2="BackgroundImageFix" result="shape"/>
      <feGaussianBlur stdDeviation="100" result="effect1_foregroundBlur_splat"/>
    </filter>
    <filter id="filter3_f_splat" x="505" y="200" width="1305" height="880" filterUnits="userSpaceOnUse" color-interpolation-filters="sRGB">
      <feFlood flood-opacity="0" result="BackgroundImageFix"/>
      <feBlend mode="normal" in="SourceGraphic" in2="BackgroundImageFix" result="shape"/>
      <feGaussianBlur stdDeviation="100" result="effect1_foregroundBlur_splat"/>
    </filter>
    <filter id="filter4_f_splat" x="0" y="0" width="1700" height="1150" filterUnits="userSpaceOnUse" color-interpolation-filters="sRGB">
      <feFlood flood-opacity="0" result="BackgroundImageFix"/>
      <feBlend mode="normal" in="SourceGraphic" in2="BackgroundImageFix" result="shape"/>
      <feGaussianBlur stdDeviation="100" result="effect1_foregroundBlur_splat"/>
    </filter>
  </defs>
</svg>
